<svg id="SvgjsSvg1000" xmlns="http://www.w3.org/2000/svg" version="1.1" xmlns:xlink="http://www.w3.org/1999/xlink" xmlns:svgjs="http://svgjs.com/svgjs" width="56" height="34" viewBox="0 0 56 34"><title>Shape</title><desc>Created with Avocode.</desc><defs id="SvgjsDefs1001"></defs><path id="SvgjsPath1007" d="M540 640C528.09 640 517.82 646.77 513.11 656.53C512.96 656.8199999999999 512.96 657.17 513.11 657.47C517.82 667.23 528.09 674 540 674C551.91 674 562.18 667.23 566.89 657.47C567.04 657.1800000000001 567.04 656.83 566.89 656.53C562.18 646.77 551.91 640 540 640ZM540 669C533.37 669 528 663.63 528 657C528 650.37 533.37 645 540 645C546.63 645 552 650.37 552 657C552 663.63 546.63 669 540 669Z " fill="#ff2970" fill-opacity="1" transform="matrix(1,0,0,1,-512,-640)"></path></svg>