<svg id="SvgjsSvg1019" xmlns="http://www.w3.org/2000/svg" version="1.1" xmlns:xlink="http://www.w3.org/1999/xlink" xmlns:svgjs="http://svgjs.com/svgjs" width="186" height="30" viewBox="0 0 186 30"><title>.HUB</title><desc>Created with Avocode.</desc><defs id="SvgjsDefs1020"><linearGradient id="SvgjsLinearGradient1022" gradientUnits="userSpaceOnUse" x1="945" y1="91" x2="1053" y2="61"><stop id="SvgjsStop1023" stop-opacity="1" stop-color="#a234d5" offset="0"></stop><stop id="SvgjsStop1024" stop-opacity="1" stop-color="#ff2970" offset="1"></stop></linearGradient></defs><path id="SvgjsPath1021" d="M979.39 73.53L967.61 73.53L967.61 61L961 61L961 91L967.61 91L967.61 79.2L979.39 79.2L979.39 91L986 91L986 61L979.39 61ZM1003.14 83.03C1002.05 81.66 1001.51 79.78 1001.51 77.4L1001.51 61.00000000000001L995 61.00000000000001L995 77.61000000000001C995 81.89000000000001 996.18 85.19000000000001 998.53 87.52000000000001C1000.88 89.84 1003.88 91.00000000000001 1007.52 91.00000000000001C1011.17 91.00000000000001 1014.16 89.85000000000001 1016.49 87.54000000000002C1018.83 85.23000000000002 1020 81.92000000000002 1020 77.61000000000001L1020 61.000000000000014L1013.49 61.000000000000014L1013.49 77.4C1013.49 79.78 1012.95 81.66000000000001 1011.88 83.03C1010.81 84.41 1009.36 85.09 1007.52 85.09C1005.68 85.09 1004.22 84.41 1003.14 83.03ZM1050.85 88.21C1052.28 86.61 1053 84.75999999999999 1053 82.66999999999999C1053 80.78999999999999 1052.45 79.19999999999999 1051.34 77.92999999999999C1050.24 76.66 1048.76 75.82 1046.8899999999999 75.41999999999999C1047.4099999999999 75.18999999999998 1047.77 75.02999999999999 1047.9699999999998 74.92999999999999C1048.1699999999998 74.83 1048.5299999999997 74.58 1049.0399999999997 74.17999999999999C1050.5599999999997 73.02999999999999 1051.3199999999997 71.28999999999999 1051.3199999999997 68.94C1051.3199999999997 66.99 1050.6499999999996 65.25 1049.2999999999997 63.699999999999996C1048.5599999999997 62.87 1047.4399999999998 62.22 1045.9699999999998 61.73C1044.4899999999998 61.239999999999995 1042.7299999999998 61 1040.6999999999998 61L1028.9999999999998 61L1028.9999999999998 91L1042.1599999999999 91C1046.29 91 1049.1899999999998 90.07 1050.85 88.21ZM1036 66L1039.34 66C1041.3899999999999 66 1042.85 66.2 1043.7099999999998 66.6C1044.5699999999997 66.99 1044.9999999999998 67.80999999999999 1044.9999999999998 69.03999999999999C1044.9999999999998 70.27 1044.5299999999997 71.07 1043.5999999999997 71.44C1042.6599999999996 71.81 1041.2299999999998 72 1039.2999999999997 72L1035.9999999999998 72ZM946.01 89.99C946.6899999999999 90.66 947.52 91 948.5 91C949.48 91 950.31 90.66 950.99 89.99C951.66 89.30999999999999 952 88.47999999999999 952 87.5C952 86.52 951.66 85.69 950.99 85.01C950.3100000000001 84.34 949.48 84 948.5 84C947.52 84 946.69 84.34 946.01 85.01C945.34 85.69000000000001 945 86.52000000000001 945 87.5C945 88.48 945.34 89.31 946.01 89.99ZM1036 79L1039.82 79C1041.98 79 1043.54 79.22 1044.53 79.67C1045.51 80.12 1046 81.05 1046 82.46000000000001C1046 83.86000000000001 1045.54 84.80000000000001 1044.61 85.28C1043.6799999999998 85.76 1042.29 86 1040.4399999999998 86L1035.9999999999998 86Z " fill="url(#SvgjsLinearGradient1022)" transform="matrix(1,0,0,1,-867,-61)"></path><path id="SvgjsPath1025" d="M887.49 75.9L894 75.9L894 86.19C891.12 89.39999999999999 887.14 91 882.06 91C877.8 91 874.2199999999999 89.59 871.3299999999999 86.77C868.4399999999999 83.95 866.9999999999999 80.38 866.9999999999999 76.08C866.9999999999999 71.78 868.4699999999999 68.19 871.4199999999998 65.32C874.3599999999999 62.43999999999999 877.9099999999999 60.99999999999999 882.0799999999998 60.99999999999999C886.2399999999998 60.99999999999999 889.8499999999998 62.36999999999999 892.9199999999998 65.11L889.5599999999998 69.96C888.2599999999999 68.83 887.0699999999998 68.05 885.9699999999998 67.61999999999999C884.8799999999998 67.18999999999998 883.6999999999998 66.97999999999999 882.4299999999998 66.97999999999999C879.9699999999998 66.97999999999999 877.8899999999999 67.80999999999999 876.2099999999998 69.49C874.5199999999998 71.16 873.6799999999998 73.36999999999999 873.6799999999998 76.1C873.6799999999998 78.83999999999999 874.4899999999998 81.03 876.0999999999998 82.67999999999999C877.7199999999998 84.33 879.6499999999997 85.14999999999999 881.8899999999998 85.14999999999999C884.1299999999998 85.14999999999999 885.9999999999998 84.71999999999998 887.4899999999998 83.85999999999999ZM902 61L908 61L908 90L902 90ZM918 61L918 90L924.5 90L924.5 78.63L937.33 78.63L937.33 72.94999999999999L924.5 72.94999999999999L924.5 66.67999999999999L938 66.67999999999999L938 60.99999999999999Z " fill="#ffffff" fill-opacity="1" transform="matrix(1,0,0,1,-867,-61)"></path></svg>